<?xml version="1.0" encoding="utf-8"?>
<!-- Generator: Adobe Illustrator 27.4.0, SVG Export Plug-In . SVG Version: 6.00 Build 0)  -->
<svg version="1.1" id="Calque_1" xmlns="http://www.w3.org/2000/svg" xmlns:xlink="http://www.w3.org/1999/xlink" x="0px" y="0px"
	 viewBox="0 0 1000 1000" style="enable-background:new 0 0 1000 1000;" xml:space="preserve">
<style type="text/css">
	.st0{fill:#FFFFFF;}
</style>
<g id="Va">
	<path class="st0" d="M500,0C225,0,0,225,0,500s225,500,500,500s500-225,500-500S775,0,500,0z M500,103.1
		c218.8,0,393.8,175,396.9,393.8H762.5L600,178.1L400,587.5l-96.9-190.6H118.8C162.5,228.1,318.8,103.1,500,103.1z M500,896.9
		c-218.8,0-396.9-178.1-396.9-396.9h134.4L400,821.9l200-409.4l96.9,190.6h184.4C837.5,771.9,684.4,896.9,500,896.9z"/>
</g>
<g>
</g>
<g>
</g>
<g>
</g>
<g>
</g>
<g>
</g>
<g>
</g>
<g>
</g>
<g>
</g>
<g>
</g>
<g>
</g>
<g>
</g>
<g>
</g>
<g>
</g>
<g>
</g>
<g>
</g>
</svg>
